<?xml version="1.0" encoding="UTF-8"?>
<svg id="Layer_1" data-name="Layer 1" xmlns="http://www.w3.org/2000/svg" viewBox="0 0 478.31 151.81">
  <defs>
    <style>
      .cls-1 {
        fill: #fbb715;
      }

      .cls-1, .cls-2 {
        stroke-width: 0px;
      }

      .cls-2 {
        fill: #fff;
      }
    </style>
  </defs>
  <path class="cls-2" d="M69.54,20.51c-12.96,0-47.98.22-47.98.22,0,0,.2,1.88.2,4.41,1.06,0,3.29.2,6.42,1.07,5.62,1.37,5.52,5.77,5.52,5.77v61.08c0,2.15-1.55,3.81-3.1,4.59-1.17.78-8.66,1.28-8.66,1.28l-.36.31v4.01h45.24c21.27-1.44,46.35-11.74,46.35-42.64s-30.66-40.11-43.63-40.11M68.84,97.75c-3.04.08-11.23.14-11.85.14s-1.65-.56-1.8-2.93c-.13-2.37,0-19.32,0-19.32l-10.53-10.55s-2.23-2.3.11-4.81c2.38-2.52,10.4-10.37,10.4-10.37,0,0-.11-20.16.15-21.92.39-1.7,1.12-2.15,3.45-2.15s6.48-.07,7.95.2c1.49.25,23.12,2.41,23.12,35.07s-13.98,35.68-21,36.65"/>
  <path class="cls-2" d="M120.86,20.61l44.73.07v4.46s-8.54.91-9.98,2.09c-1.44,1.19-2.31,1.96-2.31,6.15v54.79s-.15,5.86,2.11,7.68c0,0,1.99,1.47,5.26,1.68,3.29.21,9.7.64,16.28-.7,6.56-1.33,10.53-3.7,14.48-15.98h4.38l-3.96,22.27h-70.84v-4.26s7.45-.84,8.82-1.68c1.37-.84,3.35-1.54,3.09-7.82v-56.18s.48-4.33-3.42-5.73c-3.9-1.39-7.25-2.02-8.41-2.09l-.22-4.75Z"/>
  <path class="cls-2" d="M283.57,22.72h-5.07s-.67,3.57-3.08,3.43c-1.6-.64-10.54-5.38-25.95-5.59-15.41-.21-44.55,9.22-45.78,42.85,1.37,15.93,8,34.77,37.08,39.42,14.79,1.35,32.3,1.29,45.36-21.24l-5.23-2.87s-9.07,17.96-27.48,17.2c0,0-10.34-.21-16.09-6.22-5.74-6.01-11.18-17.27-8.71-38.19,2.44-20.92,15.78-31.11,36.31-22.53,8.61,5.79,12.7,12.87,13.94,22.2l5.64.11-.94-28.57Z"/>
  <path class="cls-1" d="M67.75,62.72c.27.27.27.68,0,.93l-9.11,9.15c-.26.26-.68.26-.95,0l-9.22-9.25c-.25-.26-.25-.68,0-.93l9.13-9.15c.25-.26.67-.26.92,0l9.23,9.24Z"/>
  <g>
    <path class="cls-2" d="M379.06,22.62v2.18c-2.91.47-5.51,2.03-7.79,4.66-1.65,1.97-4.11,6.59-7.37,13.86l-27.55,61.12h-1.95l-27.43-63.59c-3.3-7.67-5.52-12.17-6.64-13.51-1.12-1.34-3.24-2.18-6.34-2.54v-2.18h38.34v2.18h-1.3c-3.46,0-5.82.43-7.08,1.3-.9.59-1.36,1.46-1.36,2.6,0,.71.16,1.54.47,2.51.31.96,1.38,3.55,3.19,7.76l17.05,39.82,15.81-35.45c1.89-4.29,3.05-7.16,3.48-8.61.43-1.45.65-2.69.65-3.72,0-1.18-.32-2.22-.94-3.13-.63-.9-1.55-1.59-2.77-2.06-1.69-.67-3.93-1-6.72-1v-2.18h26.25Z"/>
    <path class="cls-2" d="M410.39,22.62l39.46,49.61v-34.39c0-4.8-.69-8.04-2.06-9.73-1.89-2.28-5.05-3.38-9.5-3.3v-2.18h26.43v2.18c-3.38.43-5.65.99-6.81,1.68-1.16.69-2.06,1.81-2.71,3.36-.65,1.55-.97,4.22-.97,7.99v66.6h-2l-54.1-66.6v50.85c0,4.6,1.05,7.71,3.16,9.32,2.1,1.61,4.51,2.42,7.23,2.42h1.89v2.18h-28.38v-2.18c4.4-.04,7.47-.94,9.2-2.71s2.6-4.78,2.6-9.03v-56.46l-1.71-2.12c-1.69-2.12-3.19-3.52-4.48-4.19-1.3-.67-3.17-1.04-5.6-1.12v-2.18h28.38Z"/>
  </g>
  <g>
    <path class="cls-2" d="M31.69,119.93v3.69h-.36c-.22-.85-.46-1.46-.72-1.84s-.63-.67-1.08-.89c-.26-.12-.71-.18-1.35-.18h-1.02v10.52c0,.7.04,1.13.12,1.31.08.17.23.33.46.46s.54.2.93.2h.46v.37h-7.2v-.37h.46c.4,0,.72-.07.96-.21.18-.09.31-.25.42-.48.07-.16.11-.58.11-1.27v-10.52h-.99c-.93,0-1.6.2-2.02.58-.59.54-.96,1.32-1.12,2.32h-.39v-3.69h12.35Z"/>
    <path class="cls-2" d="M41.08,129.68h-4.86l-.58,1.33c-.19.44-.28.81-.28,1.1,0,.38.16.66.47.84.18.11.63.19,1.35.24v.37h-4.57v-.37c.49-.07.9-.28,1.22-.61.32-.33.71-1.02,1.18-2.06l4.92-10.88h.19l4.96,11.18c.47,1.06.86,1.73,1.17,2,.23.21.55.33.97.36v.37h-6.65v-.37h.27c.53,0,.91-.07,1.13-.22.15-.11.22-.26.22-.46,0-.12-.02-.25-.06-.37-.01-.06-.11-.31-.3-.75l-.73-1.7ZM40.73,128.94l-2.05-4.7-2.11,4.7h4.16ZM37.1,115.21h3.05l.5,1.59h-.86l-2.69-1.59ZM39.13,117.27h1.89l1.63,1.47h-.49l-2.13-.68-2.05.68h-.48l1.62-1.47Z"/>
    <path class="cls-2" d="M57.33,128.92l3.73-8.99h5.6v.37h-.45c-.41,0-.73.07-.97.21-.17.09-.3.25-.41.47-.07.16-.11.58-.11,1.26v8.99c0,.7.04,1.13.11,1.31.07.17.23.33.46.46.23.13.54.2.92.2h.45v.37h-7.18v-.37h.45c.41,0,.73-.07.97-.21.17-.09.3-.25.41-.48.07-.16.11-.58.11-1.27v-10.11l-5.27,12.44h-.24l-5.35-12.35v9.61c0,.67.02,1.08.05,1.24.09.34.28.61.57.82.29.21.76.32,1.38.32v.37h-4.7v-.37h.14c.3,0,.59-.04.85-.15.26-.1.46-.24.6-.42.13-.17.24-.42.31-.73.01-.07.02-.42.02-1.03v-8.63c0-.69-.04-1.12-.11-1.29-.07-.17-.23-.32-.46-.45s-.54-.2-.92-.2h-.44v-.37h5.62l3.86,8.99Z"/>
    <path class="cls-2" d="M77.39,119.93l6.78,8.46v-5.86c0-.82-.12-1.37-.35-1.66-.32-.39-.87-.58-1.63-.56v-.37h4.54v.37c-.58.07-.97.17-1.17.29s-.35.31-.47.57c-.11.26-.17.72-.17,1.36v11.36h-.34l-9.3-11.36v8.67c0,.79.18,1.31.54,1.59.36.27.78.41,1.24.41h.32v.37h-4.88v-.37c.76,0,1.28-.16,1.58-.46s.45-.81.45-1.54v-9.62l-.29-.36c-.29-.36-.55-.6-.77-.71-.22-.11-.54-.18-.96-.19v-.37h4.88Z"/>
    <path class="cls-2" d="M92.89,127.01v4.22c0,.7.04,1.13.12,1.31.08.17.23.33.46.46s.53.2.92.2h.46v.37h-7.19v-.37h.46c.4,0,.72-.07.96-.21.18-.09.31-.25.41-.48.07-.16.11-.58.11-1.27v-8.97c0-.7-.04-1.13-.11-1.31-.07-.17-.23-.33-.45-.46-.23-.13-.53-.2-.92-.2h-.46v-.37h7.19v.37h-.46c-.4,0-.72.07-.96.21-.18.09-.31.25-.42.48-.07.16-.11.58-.11,1.27v3.86h4.86v-3.86c0-.7-.04-1.13-.11-1.31-.07-.17-.23-.33-.46-.46-.23-.13-.54-.2-.92-.2h-.45v-.37h7.18v.37h-.45c-.41,0-.73.07-.96.21-.18.09-.31.25-.42.48-.07.16-.11.58-.11,1.27v8.97c0,.7.04,1.13.11,1.31.07.17.23.33.46.46.23.13.54.2.92.2h.45v.37h-7.18v-.37h.45c.41,0,.73-.07.96-.21.18-.09.31-.25.42-.48.07-.16.11-.58.11-1.27v-4.22h-4.86Z"/>
    <path class="cls-2" d="M110.97,133.2v.37h-7.19v-.37h.46c.4,0,.72-.07.96-.21.18-.09.31-.25.41-.48.07-.16.11-.58.11-1.27v-8.97c0-.7-.04-1.13-.11-1.31-.07-.17-.22-.33-.45-.46s-.53-.2-.92-.2h-.46v-.37h7.19v.37h-.46c-.4,0-.72.07-.96.21-.18.09-.31.25-.42.48-.07.16-.11.58-.11,1.27v8.97c0,.7.04,1.13.12,1.31.08.17.23.33.46.46.23.13.53.2.92.2h.46ZM104.27,115.27h3.05l1.18,3.49h-.86l-3.37-3.49Z"/>
    <path class="cls-2" d="M116.61,119.93l6.78,8.46v-5.86c0-.82-.12-1.37-.35-1.66-.32-.39-.87-.58-1.63-.56v-.37h4.54v.37c-.58.07-.97.17-1.17.29s-.35.31-.47.57c-.11.26-.17.72-.17,1.36v11.36h-.34l-9.3-11.36v8.67c0,.79.18,1.31.54,1.59.36.27.78.41,1.24.41h.32v.37h-4.88v-.37c.76,0,1.28-.16,1.58-.46s.45-.81.45-1.54v-9.62l-.29-.36c-.29-.36-.55-.6-.77-.71-.22-.11-.54-.18-.96-.19v-.37h4.88Z"/>
    <path class="cls-2" d="M141.55,133.69c.31.89.79,1.56,1.45,2.01.66.45,1.48.67,2.46.67.27,0,.56-.03.86-.08v.61c-1.02.25-1.93.38-2.74.38-1.26,0-2.38-.31-3.37-.92-.99-.61-1.74-1.51-2.24-2.69-1.66-.35-3-1.16-4.02-2.42-1.02-1.27-1.53-2.78-1.53-4.54,0-2.04.69-3.73,2.07-5.08,1.38-1.35,3.13-2.03,5.25-2.03s3.86.68,5.23,2.03,2.06,3.05,2.06,5.08c0,1.77-.54,3.31-1.61,4.62-1.07,1.31-2.37,2.09-3.88,2.34ZM139.75,120.38c-1.22,0-2.16.63-2.82,1.88-.55,1.05-.83,2.55-.83,4.5,0,2.33.42,4.06,1.25,5.19.58.78,1.38,1.18,2.4,1.18s1.83-.39,2.4-1.16c.83-1.11,1.25-2.77,1.25-4.99s-.26-3.77-.78-4.75c-.65-1.23-1.6-1.85-2.87-1.85Z"/>
    <path class="cls-2" d="M148.26,119.93h7.1v.37h-.35c-.53,0-.9.06-1.1.17s-.34.26-.43.46-.13.68-.13,1.46v6.68c0,1.22.09,2.03.28,2.42.19.4.49.72.92.99.43.26.96.39,1.61.39.74,0,1.38-.17,1.9-.5s.92-.79,1.18-1.37c.26-.58.39-1.6.39-3.05v-5.56c0-.61-.06-1.05-.19-1.31s-.29-.44-.49-.54c-.3-.15-.73-.23-1.29-.23v-.37h4.75v.37h-.28c-.39,0-.71.08-.96.23s-.44.39-.56.69c-.09.21-.13.6-.13,1.16v5.18c0,1.6-.11,2.76-.32,3.47-.21.71-.73,1.36-1.56,1.96-.82.6-1.95.9-3.38.9-1.19,0-2.11-.16-2.76-.47-.89-.43-1.51-.98-1.88-1.65-.37-.67-.55-1.57-.55-2.71v-6.68c0-.78-.04-1.27-.13-1.46-.09-.19-.24-.34-.46-.46s-.61-.17-1.2-.16v-.37Z"/>
    <path class="cls-2" d="M170.78,119.74c2.19-.08,3.97.55,5.34,1.9s2.05,3.03,2.05,5.06c0,1.73-.51,3.25-1.53,4.57-1.35,1.74-3.26,2.62-5.73,2.62s-4.39-.83-5.74-2.49c-1.07-1.31-1.6-2.87-1.6-4.68,0-2.03.69-3.71,2.08-5.06,1.39-1.35,3.1-1.99,5.12-1.91ZM170.91,120.38c-1.26,0-2.21.64-2.87,1.91-.54,1.05-.8,2.55-.8,4.51,0,2.33.41,4.05,1.24,5.16.57.78,1.38,1.17,2.41,1.17.7,0,1.28-.17,1.74-.5.59-.43,1.06-1.12,1.39-2.06.33-.94.5-2.17.5-3.69,0-1.8-.17-3.15-.51-4.05-.34-.89-.77-1.53-1.29-1.9s-1.13-.55-1.81-.55ZM169.93,117.27h1.89l1.63,1.47h-.49l-2.13-.68-2.05.68h-.48l1.62-1.47ZM173.66,115.21l-2.62,1.59h-.87l.44-1.59h3.05Z"/>
    <path class="cls-2" d="M192.77,119.62v4.73h-.4c-.3-1.23-.85-2.18-1.66-2.84-.81-.66-1.73-.99-2.76-.99-.86,0-1.65.24-2.36.73-.72.49-1.24,1.13-1.57,1.92-.43,1.01-.64,2.14-.64,3.38s.16,2.33.47,3.33c.31,1,.8,1.76,1.46,2.27.66.51,1.52.77,2.58.77.87,0,1.66-.19,2.38-.56.72-.38,1.48-1.02,2.28-1.94v1.18c-.77.8-1.57,1.38-2.41,1.73-.83.36-1.81.54-2.92.54-1.47,0-2.77-.29-3.91-.88-1.14-.58-2.02-1.42-2.64-2.51-.62-1.09-.93-2.26-.93-3.49,0-1.3.34-2.54,1.03-3.7.69-1.17,1.61-2.07,2.78-2.71,1.17-.64,2.4-.97,3.71-.97.97,0,1.99.21,3.06.62.62.24,1.02.36,1.19.36.22,0,.4-.08.56-.24.16-.16.26-.41.31-.75h.4Z"/>
    <path class="cls-2" d="M212.2,119.93v3.69h-.37c-.22-.85-.46-1.46-.72-1.84s-.62-.67-1.08-.89c-.26-.12-.71-.18-1.35-.18h-1.02v10.52c0,.7.04,1.13.12,1.31.08.17.23.33.46.46.23.13.54.2.93.2h.46v.37h-7.2v-.37h.46c.4,0,.72-.07.96-.21.18-.09.31-.25.42-.48.07-.16.11-.58.11-1.27v-10.52h-.99c-.93,0-1.6.2-2.02.58-.59.54-.96,1.32-1.11,2.32h-.39v-3.69h12.35Z"/>
    <path class="cls-2" d="M218.6,120.71v5.55h.27c.87,0,1.5-.27,1.9-.82.39-.54.64-1.34.75-2.4h.38v7.14h-.38c-.08-.78-.25-1.41-.51-1.91-.26-.5-.56-.83-.91-1s-.85-.26-1.5-.26v3.84c0,.75.03,1.21.1,1.38.06.17.18.31.36.41s.46.16.85.16h.82c1.28,0,2.31-.3,3.09-.89s1.33-1.49,1.67-2.7h.38l-.62,4.33h-11.88v-.37h.46c.4,0,.72-.07.96-.21.18-.09.31-.25.41-.48.07-.16.11-.58.11-1.27v-8.97c0-.62-.02-1-.05-1.14-.07-.24-.19-.42-.38-.54-.26-.19-.61-.28-1.05-.28h-.46v-.37h11.5v4.03h-.38c-.2-.99-.47-1.69-.83-2.12s-.86-.74-1.5-.95c-.38-.12-1.09-.18-2.13-.18h-1.42ZM219.03,117.27h1.89l1.63,1.47h-.49l-2.13-.68-2.05.68h-.48l1.62-1.47ZM222.76,115.21l-2.62,1.59h-.87l.44-1.59h3.05Z"/>
    <path class="cls-2" d="M245.09,128.78l-.52,4.79h-12.21v-.37h.46c.4,0,.72-.07.96-.21.18-.09.31-.25.41-.48.07-.16.11-.58.11-1.27v-8.97c0-.7-.04-1.13-.11-1.31-.07-.17-.22-.33-.45-.46s-.53-.2-.92-.2h-.46v-.37h7.33v.37h-.6c-.4,0-.72.07-.96.21-.18.09-.31.25-.42.48-.07.16-.11.58-.11,1.27v8.69c0,.7.04,1.14.12,1.33s.24.33.48.43c.17.06.58.09,1.23.09h1.15c.73,0,1.34-.13,1.82-.38s.91-.66,1.26-1.21c.35-.55.69-1.36,1.01-2.43h.42Z"/>
    <path class="cls-2" d="M261.24,126.7c0,1.73-.51,3.25-1.53,4.57-1.35,1.74-3.26,2.62-5.73,2.62s-4.39-.83-5.74-2.49c-1.07-1.31-1.6-2.87-1.6-4.68,0-2.03.7-3.71,2.09-5.07,1.3-1.27,3.01-1.9,5.12-1.9.91,0,1.74.12,2.5.37.3.09.85.32,1.64.68.55.25,1.01.39,1.38.39.41.01.7,0,.89-.06.17-.05.29-.15.37-.32.03-.06.04-.11,0-.16-.16-.07-.38-.27-.67-.58-.16-.28-.21-.54-.13-.79.07-.27.25-.48.53-.64.29-.16.59-.19.9-.08.36.11.63.34.79.69.17.36.18.75.05,1.18-.16.48-.51.82-1.03,1.03-.34.14-.98.21-1.9.21,1.37,1.35,2.06,3.03,2.06,5.05ZM253.97,120.38c-2.45,0-3.67,2.14-3.67,6.42,0,2.33.41,4.05,1.24,5.16.57.78,1.38,1.17,2.41,1.17,1.49,0,2.53-.86,3.13-2.57.33-.94.5-2.17.5-3.68,0-3.12-.6-5.1-1.79-5.94-.53-.37-1.13-.55-1.81-.55ZM253.9,134.59c.47,0,.87.16,1.2.49s.49.72.49,1.19-.17.86-.5,1.18-.73.49-1.2.49-.86-.16-1.19-.49-.49-.72-.49-1.18.16-.86.49-1.19c.33-.33.72-.49,1.19-.49Z"/>
    <path class="cls-2" d="M269.58,133.2v.37h-7.19v-.37h.46c.4,0,.72-.07.96-.21.18-.09.31-.25.41-.48.07-.16.11-.58.11-1.27v-8.97c0-.7-.04-1.13-.11-1.31-.07-.17-.22-.33-.45-.46s-.53-.2-.92-.2h-.46v-.37h7.19v.37h-.46c-.4,0-.72.07-.96.21-.18.09-.31.25-.42.48-.08.16-.11.58-.11,1.27v8.97c0,.7.04,1.13.12,1.31.08.17.23.33.46.46s.53.2.92.2h.46Z"/>
    <path class="cls-2" d="M288.35,119.93v3.69h-.37c-.22-.85-.46-1.46-.72-1.84s-.62-.67-1.08-.89c-.26-.12-.71-.18-1.35-.18h-1.02v10.52c0,.7.04,1.13.12,1.31.08.17.23.33.46.46.23.13.54.2.93.2h.46v.37h-7.2v-.37h.46c.4,0,.72-.07.96-.21.18-.09.31-.25.42-.48.07-.16.11-.58.11-1.27v-10.52h-.99c-.93,0-1.6.2-2.02.58-.59.54-.96,1.32-1.11,2.32h-.39v-3.69h12.35Z"/>
    <path class="cls-2" d="M294.77,127.01v4.22c0,.7.04,1.13.12,1.31.08.17.23.33.46.46.23.13.53.2.92.2h.46v.37h-7.19v-.37h.46c.4,0,.72-.07.96-.21.18-.09.31-.25.41-.48.07-.16.11-.58.11-1.27v-8.97c0-.7-.04-1.13-.11-1.31-.07-.17-.22-.33-.45-.46s-.53-.2-.92-.2h-.46v-.37h7.19v.37h-.46c-.4,0-.72.07-.96.21-.18.09-.31.25-.42.48-.07.16-.11.58-.11,1.27v3.86h4.86v-3.86c0-.7-.04-1.13-.11-1.31-.07-.17-.23-.33-.46-.46s-.54-.2-.92-.2h-.45v-.37h7.18v.37h-.45c-.41,0-.73.07-.96.21-.18.09-.31.25-.42.48-.08.16-.11.58-.11,1.27v8.97c0,.7.04,1.13.11,1.31.07.17.23.33.46.46.23.13.54.2.92.2h.45v.37h-7.18v-.37h.45c.41,0,.73-.07.96-.21.17-.09.31-.25.42-.48.07-.16.11-.58.11-1.27v-4.22h-4.86Z"/>
    <path class="cls-2" d="M310.9,120.71v5.55h.27c.87,0,1.5-.27,1.9-.82.39-.54.64-1.34.75-2.4h.38v7.14h-.38c-.08-.78-.25-1.41-.51-1.91-.26-.5-.56-.83-.91-1s-.85-.26-1.5-.26v3.84c0,.75.03,1.21.1,1.38.06.17.18.31.36.41s.46.16.85.16h.82c1.28,0,2.31-.3,3.09-.89s1.33-1.49,1.67-2.7h.38l-.62,4.33h-11.88v-.37h.46c.4,0,.72-.07.96-.21.18-.09.31-.25.41-.48.07-.16.11-.58.11-1.27v-8.97c0-.62-.02-1-.05-1.14-.07-.24-.19-.42-.38-.54-.26-.19-.61-.28-1.05-.28h-.46v-.37h11.5v4.03h-.38c-.2-.99-.47-1.69-.83-2.12s-.86-.74-1.5-.95c-.38-.12-1.09-.18-2.13-.18h-1.42ZM311.33,117.27h1.89l1.63,1.47h-.49l-2.13-.68-2.05.68h-.48l1.62-1.47ZM315.06,115.21l-2.62,1.59h-.87l.44-1.59h3.05Z"/>
    <path class="cls-2" d="M324.64,133.57v-.37h.46c.4,0,.71-.06.92-.19.21-.12.37-.29.47-.51.07-.15.1-.57.1-1.27v-4.49h-1.95v-.74h1.95v-3.74c0-.7-.04-1.13-.12-1.31-.08-.17-.23-.33-.46-.46s-.53-.2-.92-.2h-.46v-.37h6.16c1.64,0,2.96.22,3.96.66,1.22.54,2.15,1.36,2.78,2.46.63,1.1.94,2.34.94,3.73,0,.96-.15,1.84-.46,2.65-.31.81-.71,1.48-1.21,2-.5.53-1.07.95-1.71,1.27-.65.32-1.43.57-2.37.74-.41.08-1.05.12-1.94.12h-6.16ZM329.89,120.7v5.3s3.04,0,3.04,0v.74h-3.05v4.6c0,.56.04.91.09,1.04.05.13.14.22.26.29.19.1.45.15.79.15,1.13,0,1.99-.38,2.59-1.15.8-1.03,1.21-2.64,1.21-4.81,0-1.75-.28-3.15-.83-4.19-.43-.82-.99-1.38-1.68-1.67-.49-.21-1.29-.31-2.42-.3Z"/>
    <path class="cls-2" d="M346.88,133.2v.37h-7.19v-.37h.46c.4,0,.72-.07.96-.21.18-.09.31-.25.41-.48.07-.16.11-.58.11-1.27v-8.97c0-.7-.04-1.13-.11-1.31-.07-.17-.22-.33-.45-.46s-.53-.2-.92-.2h-.46v-.37h7.19v.37h-.46c-.4,0-.72.07-.96.21-.18.09-.31.25-.42.48-.08.16-.11.58-.11,1.27v8.97c0,.7.04,1.13.12,1.31.08.17.23.33.46.46s.53.2.92.2h.46ZM343.29,134.59c.47,0,.87.16,1.2.49.33.33.49.72.49,1.19s-.17.86-.5,1.18c-.33.33-.73.49-1.2.49s-.86-.16-1.19-.49-.49-.72-.49-1.18.16-.86.49-1.19c.33-.33.72-.49,1.19-.49Z"/>
    <path class="cls-2" d="M355.99,129.68h-4.86l-.58,1.33c-.19.44-.28.81-.28,1.1,0,.38.16.66.47.84.18.11.63.19,1.35.24v.37h-4.57v-.37c.49-.07.9-.28,1.22-.61.32-.33.71-1.02,1.18-2.06l4.92-10.88h.19l4.96,11.18c.47,1.06.86,1.73,1.17,2,.23.21.55.33.97.36v.37h-6.65v-.37h.27c.53,0,.91-.07,1.12-.22.15-.11.22-.26.22-.46,0-.12-.02-.25-.06-.37-.01-.06-.12-.31-.3-.75l-.73-1.7ZM355.65,128.94l-2.05-4.7-2.11,4.7h4.16Z"/>
    <path class="cls-2" d="M373.14,127.39v3.78c0,.74.05,1.2.14,1.39.09.19.25.34.49.46s.66.17,1.28.17v.37h-6.98v-.37c.63,0,1.07-.06,1.29-.18s.39-.27.48-.46c.09-.19.14-.65.14-1.39v-8.85c0-.74-.04-1.2-.14-1.39-.09-.19-.25-.34-.48-.46-.23-.11-.66-.17-1.29-.17v-.37h5.99c1.97,0,3.39.35,4.25,1.05s1.29,1.57,1.29,2.62c0,.88-.28,1.64-.83,2.27-.55.63-1.32,1.06-2.29,1.29-.66.16-1.76.24-3.33.24ZM373.14,120.71v5.89c.22.01.39.02.51.02.83,0,1.46-.24,1.91-.73s.67-1.24.67-2.26-.22-1.75-.67-2.22c-.45-.47-1.11-.7-2-.7h-.42Z"/>
    <path class="cls-2" d="M385.9,127.01v4.22c0,.7.04,1.13.12,1.31.08.17.23.33.46.46.23.13.53.2.92.2h.46v.37h-7.19v-.37h.46c.4,0,.72-.07.96-.21.18-.09.31-.25.41-.48.07-.16.11-.58.11-1.27v-8.97c0-.7-.04-1.13-.11-1.31-.07-.17-.22-.33-.45-.46s-.53-.2-.92-.2h-.46v-.37h7.19v.37h-.46c-.4,0-.72.07-.96.21-.18.09-.31.25-.42.48-.07.16-.11.58-.11,1.27v3.86h4.86v-3.86c0-.7-.04-1.13-.11-1.31-.07-.17-.23-.33-.46-.46s-.54-.2-.92-.2h-.45v-.37h7.18v.37h-.45c-.41,0-.73.07-.96.21-.18.09-.31.25-.42.48-.08.16-.11.58-.11,1.27v8.97c0,.7.04,1.13.11,1.31.07.17.23.33.46.46.23.13.54.2.92.2h.45v.37h-7.18v-.37h.45c.41,0,.73-.07.96-.21.17-.09.31-.25.42-.48.07-.16.11-.58.11-1.27v-4.22h-4.86Z"/>
    <path class="cls-2" d="M410.72,120.3c-.78,0-1.28.31-1.52.93-.09.23-.13.61-.13,1.16v5.18c0,1.66-.11,2.81-.32,3.47-.24.73-.75,1.38-1.55,1.96-.82.6-1.95.9-3.38.9-1.19,0-2.11-.16-2.76-.47-.88-.43-1.5-.98-1.87-1.64-.37-.67-.55-1.57-.55-2.71v-6.68c0-.73-.04-1.22-.13-1.47-.07-.17-.21-.32-.44-.44-.23-.12-.63-.18-1.21-.17v-.37h7.1v.37h-.36c-.84,0-1.34.21-1.52.62-.09.19-.13.68-.13,1.46v6.68c0,1.15.09,1.96.28,2.42.15.38.45.7.91.99.43.26.96.39,1.61.39,1.49,0,2.52-.62,3.08-1.87.26-.58.39-1.6.39-3.05v-5.56c0-1.01-.23-1.62-.68-1.85-.3-.15-.73-.23-1.29-.23v-.37h4.75c.34,0,.65-.07.94-.2.08-.04.15-.12.2-.25.03-.07.04-.12.01-.16,0-.01-.1-.08-.28-.2-.18-.12-.31-.25-.39-.38-.16-.28-.2-.55-.13-.8.07-.26.25-.47.53-.63s.59-.19.9-.1c.63.19.94.62.94,1.3,0,.18-.03.37-.1.57-.15.45-.51.78-1.09,1.01-.39.15-.9.22-1.53.22h-.28Z"/>
    <path class="cls-2" d="M428.3,126.7c0,1.73-.51,3.25-1.53,4.57-1.35,1.74-3.26,2.62-5.73,2.62s-4.39-.83-5.74-2.49c-1.07-1.31-1.6-2.87-1.6-4.68,0-2.03.7-3.71,2.09-5.07,1.3-1.27,3.01-1.9,5.12-1.9.91,0,1.74.12,2.5.37.3.09.85.32,1.64.68.55.25,1.01.39,1.38.39.41.01.7,0,.89-.06.17-.05.29-.15.37-.32.03-.06.04-.11,0-.16-.16-.07-.38-.27-.67-.58-.16-.28-.21-.54-.13-.79.07-.27.25-.48.53-.64.29-.16.59-.19.9-.08.36.11.63.34.79.69.17.36.18.75.05,1.18-.16.48-.51.82-1.03,1.03-.34.14-.98.21-1.9.21,1.37,1.35,2.06,3.03,2.06,5.05ZM421.03,120.38c-2.45,0-3.67,2.14-3.67,6.42,0,2.33.41,4.05,1.24,5.16.57.78,1.38,1.17,2.41,1.17,1.49,0,2.53-.86,3.13-2.57.33-.94.5-2.17.5-3.68,0-3.12-.6-5.1-1.79-5.94-.53-.37-1.13-.55-1.81-.55Z"/>
    <path class="cls-2" d="M434.21,119.93l6.78,8.46v-5.86c0-.82-.12-1.37-.36-1.66-.32-.39-.87-.58-1.63-.56v-.37h4.54v.37c-.58.07-.97.17-1.17.29-.2.12-.36.31-.47.57s-.17.72-.17,1.36v11.36h-.34l-9.3-11.36v8.67c0,.79.18,1.31.54,1.59.36.27.78.41,1.24.41h.32v.37h-4.88v-.37c.76,0,1.28-.16,1.58-.46.3-.3.45-.81.45-1.54v-9.62l-.29-.36c-.29-.36-.55-.6-.77-.71-.22-.11-.54-.18-.96-.19v-.37h4.88Z"/>
    <path class="cls-2" d="M458.36,119.62v4.81h-.38c-.45-1.31-1.13-2.31-2.04-3-.91-.68-1.9-1.03-2.97-1.03s-1.88.29-2.57.86-1.17,1.37-1.45,2.4c-.28,1.03-.43,2.08-.43,3.16,0,1.31.16,2.45.47,3.44.31.99.81,1.71,1.51,2.17s1.52.69,2.47.69c.33,0,.67-.04,1.02-.11.35-.07.7-.17,1.07-.31v-2.84c0-.54-.04-.88-.11-1.04-.07-.16-.23-.3-.46-.43-.23-.13-.52-.19-.85-.19h-.36v-.37h6.68v.37c-.51.03-.86.1-1.06.21s-.35.28-.46.52c-.06.13-.09.44-.09.94v2.84c-.88.39-1.79.68-2.74.88-.95.2-1.93.3-2.96.3-1.3,0-2.39-.18-3.25-.53-.86-.35-1.62-.81-2.28-1.39-.66-.57-1.17-1.22-1.55-1.94-.47-.93-.71-1.96-.71-3.11,0-2.05.73-3.79,2.18-5.2,1.45-1.42,3.28-2.12,5.48-2.12.68,0,1.3.05,1.85.16.3.05.78.21,1.44.46.67.25,1.06.38,1.18.38.19,0,.37-.07.53-.21s.31-.4.45-.78h.38Z"/>
  </g>
</svg>