<?xml version="1.0" encoding="UTF-8"?>
<svg id="Layer_1" data-name="Layer 1" xmlns="http://www.w3.org/2000/svg" viewBox="0 0 719.91 136.43">
  <defs>
    <style>
      .cls-1 {
        fill: #005baa;
        stroke-width: 0px;
      }

      .cls-2 {
        fill: #f9ff00;
        stroke: #f9ff00;
        stroke-linecap: round;
        stroke-linejoin: bevel;
        stroke-width: 10px;
      }
    </style>
  </defs>
  <g>
    <path class="cls-2" d="M12.67,100.34v-47.53h15.28v33.41h3.53v-33.41h15.28v38.03c0,3.03-.84,5.37-2.51,7.03-1.67,1.65-4.03,2.48-7.06,2.48H12.67Z"/>
    <path class="cls-2" d="M57.48,100.34c-1.86,0-3.43-.65-4.72-1.94s-1.94-2.84-1.94-4.65v-34.36c0-1.81.65-3.36,1.94-4.65s2.86-1.94,4.72-1.94h20.78c1.86,0,3.43.65,4.72,1.94s1.94,2.84,1.94,4.65v34.36c0,1.81-.65,3.36-1.94,4.65s-2.86,1.94-4.72,1.94h-20.78ZM66.11,66.93v19.28h3.53v-19.28h-3.53ZM69.03,41.13l19.76,5.09-1.02,4.01-19.76-5.09,1.02-4.01Z"/>
    <path class="cls-2" d="M89.13,100.34v-47.53h10.93l7.74,8.62v-8.62h15.28v47.53h-15.28v-24.65l-3.39-3.67v28.32h-15.28Z"/>
    <path class="cls-2" d="M142.57,74.54h21.8v4.07h-2.92v17.45c0,1.31-.35,2.35-1.05,3.12-.7.77-1.73,1.15-3.09,1.15h-23.36c-1.86,0-3.43-.65-4.72-1.94s-1.94-2.84-1.94-4.65v-34.36c0-1.81.65-3.36,1.94-4.65s2.86-1.94,4.72-1.94h20.78c1.86,0,3.43.65,4.72,1.94s1.94,2.84,1.94,4.65v11.68h-15.28v-4.14h-3.53v7.61ZM142.57,86.22h3.53v-7.6h-3.53v7.6Z"/>
    <path class="cls-2" d="M185.28,100.34c-1.86,0-3.43-.65-4.72-1.94s-1.94-2.84-1.94-4.65v-34.36c0-1.81.65-3.36,1.94-4.65s2.86-1.94,4.72-1.94h20.78c1.86,0,3.43.65,4.72,1.94s1.94,2.84,1.94,4.65v34.36c0,1.81-.65,3.36-1.94,4.65s-2.86,1.94-4.72,1.94h-11.48s16.43,3.06,16.43,3.06l-.68,4.01-21.25-3.94.54-3.12h-4.35ZM193.9,66.93v19.28h3.53v-19.28h-3.53Z"/>
    <path class="cls-2" d="M244.21,100.34h-20.78c-1.86,0-3.43-.65-4.72-1.94s-1.94-2.84-1.94-4.65v-40.94h15.28v33.41h3.53v-33.41h15.28v40.94c0,1.81-.64,3.36-1.93,4.65-1.29,1.29-2.86,1.94-4.72,1.94Z"/>
    <path class="cls-2" d="M289.17,100.34h-15.28v-15.96h-3.53v15.96h-15.28v-40.95c0-1.81.65-3.36,1.94-4.65s2.86-1.94,4.72-1.94h20.78c1.86,0,3.43.65,4.72,1.94,1.29,1.29,1.93,2.84,1.93,4.65v40.95ZM270.36,66.93v13.38h3.53v-13.38h-3.53Z"/>
    <path class="cls-2" d="M327.19,52.81v43.59c0,1.09-.37,2.01-1.12,2.78-.75.77-1.69,1.15-2.82,1.15h-29.81v-14.12h29.33v-1.83h-22.82c-1.81,0-3.36-.65-4.65-1.94-1.29-1.29-1.94-2.86-1.94-4.72v-24.92h15.28v27.5h3.26v-27.5h15.28Z"/>
    <path class="cls-2" d="M355.03,52.81l7.26,9.78,7.27-9.78h10.93v47.53h-15.28v-25.67l-2.92,3.94-2.92-3.94v25.67h-15.28v-47.53h10.93Z"/>
    <path class="cls-2" d="M418.92,100.34h-15.28v-15.96h-3.53v15.96h-15.28v-40.95c0-1.81.65-3.36,1.94-4.65,1.29-1.29,2.86-1.94,4.72-1.94h20.78c1.85,0,3.43.65,4.72,1.94,1.29,1.29,1.93,2.84,1.93,4.65v40.95ZM400.12,66.93v13.38h3.53v-13.38h-3.53Z"/>
    <path class="cls-2" d="M456.95,52.81v43.59c0,1.09-.37,2.01-1.12,2.78-.75.77-1.69,1.15-2.82,1.15h-29.81v-14.12h29.33v-1.83h-22.82c-1.81,0-3.36-.65-4.65-1.94-1.29-1.29-1.94-2.86-1.94-4.72v-24.92h15.28v27.5h3.26v-27.5h15.28Z"/>
    <path class="cls-2" d="M484.79,52.81l7.26,9.78,7.27-9.78h10.93v47.53h-15.28v-25.67l-2.92,3.94-2.92-3.94v25.67h-15.28v-47.53h10.93Z"/>
    <path class="cls-2" d="M548.68,100.34h-15.28v-15.96h-3.53v15.96h-15.28v-40.95c0-1.81.65-3.36,1.94-4.65,1.29-1.29,2.86-1.94,4.72-1.94h20.78c1.85,0,3.43.65,4.72,1.94,1.29,1.29,1.93,2.84,1.93,4.65v40.95ZM536.33,46.22c4.3.14,6.47-1.56,6.52-5.09h3.87v2.24c-.05,4.25-2.15,6.56-6.32,6.93h-17.59c-4.17-.36-6.27-2.67-6.31-6.93v-2.24h3.87c.05,3.53,2.22,5.23,6.52,5.09h9.44ZM529.87,66.93v13.38h3.53v-13.38h-3.53ZM567.76,41.13l1.02,4.01-19.76,5.09-1.02-4.01,19.76-5.09Z"/>
    <path class="cls-2" d="M553.03,100.34v-47.53h10.93l7.74,8.62v-8.62h15.28v47.53h-15.28v-24.65l-3.4-3.67v28.32h-15.28Z"/>
    <path class="cls-2" d="M604.02,100.34v-47.53h27.43c1.85,0,3.43.65,4.72,1.94,1.29,1.29,1.93,2.84,1.93,4.65v34.36c0,1.81-.65,3.36-1.93,4.65-1.29,1.29-2.86,1.94-4.72,1.94h-27.43ZM619.3,86.22h3.53v-19.28h-3.53v19.28Z"/>
    <path class="cls-2" d="M642.32,100.34v-47.53h15.28v33.41h12.09v14.12h-27.36Z"/>
    <path class="cls-2" d="M706.83,57.09v19.62h-15.35v-9.78h-3.53v19.28h3.53v-5.43h15.28v12.97c0,1.81-.65,3.36-1.93,4.65-1.29,1.29-2.86,1.94-4.72,1.94h-20.78c-1.86,0-3.43-.65-4.72-1.94-1.29-1.29-1.93-2.84-1.93-4.65v-34.36c0-1.81.65-3.36,1.93-4.65,1.29-1.29,2.86-1.94,4.72-1.94h23.36c1.36,0,2.39.39,3.09,1.15.7.77,1.05,1.81,1.05,3.12Z"/>
  </g>
  <g>
    <path class="cls-1" d="M12.67,100.34v-47.53h15.28v33.41h3.53v-33.41h15.28v38.03c0,3.03-.84,5.37-2.51,7.03-1.67,1.65-4.03,2.48-7.06,2.48H12.67Z"/>
    <path class="cls-1" d="M57.48,100.34c-1.86,0-3.43-.65-4.72-1.94s-1.94-2.84-1.94-4.65v-34.36c0-1.81.65-3.36,1.94-4.65s2.86-1.94,4.72-1.94h20.78c1.86,0,3.43.65,4.72,1.94s1.94,2.84,1.94,4.65v34.36c0,1.81-.65,3.36-1.94,4.65s-2.86,1.94-4.72,1.94h-20.78ZM66.11,66.93v19.28h3.53v-19.28h-3.53ZM69.03,41.13l19.76,5.09-1.02,4.01-19.76-5.09,1.02-4.01Z"/>
    <path class="cls-1" d="M89.13,100.34v-47.53h10.93l7.74,8.62v-8.62h15.28v47.53h-15.28v-24.65l-3.39-3.67v28.32h-15.28Z"/>
    <path class="cls-1" d="M142.57,74.54h21.8v4.07h-2.92v17.45c0,1.31-.35,2.35-1.05,3.12-.7.77-1.73,1.15-3.09,1.15h-23.36c-1.86,0-3.43-.65-4.72-1.94s-1.94-2.84-1.94-4.65v-34.36c0-1.81.65-3.36,1.94-4.65s2.86-1.94,4.72-1.94h20.78c1.86,0,3.43.65,4.72,1.94s1.94,2.84,1.94,4.65v11.68h-15.28v-4.14h-3.53v7.61ZM142.57,86.22h3.53v-7.6h-3.53v7.6Z"/>
    <path class="cls-1" d="M185.28,100.34c-1.86,0-3.43-.65-4.72-1.94s-1.94-2.84-1.94-4.65v-34.36c0-1.81.65-3.36,1.94-4.65s2.86-1.94,4.72-1.94h20.78c1.86,0,3.43.65,4.72,1.94s1.94,2.84,1.94,4.65v34.36c0,1.81-.65,3.36-1.94,4.65s-2.86,1.94-4.72,1.94h-11.48s16.43,3.06,16.43,3.06l-.68,4.01-21.25-3.94.54-3.12h-4.35ZM193.9,66.93v19.28h3.53v-19.28h-3.53Z"/>
    <path class="cls-1" d="M244.21,100.34h-20.78c-1.86,0-3.43-.65-4.72-1.94s-1.94-2.84-1.94-4.65v-40.94h15.28v33.41h3.53v-33.41h15.28v40.94c0,1.81-.64,3.36-1.93,4.65-1.29,1.29-2.86,1.94-4.72,1.94Z"/>
    <path class="cls-1" d="M289.17,100.34h-15.28v-15.96h-3.53v15.96h-15.28v-40.95c0-1.81.65-3.36,1.94-4.65s2.86-1.94,4.72-1.94h20.78c1.86,0,3.43.65,4.72,1.94,1.29,1.29,1.93,2.84,1.93,4.65v40.95ZM270.36,66.93v13.38h3.53v-13.38h-3.53Z"/>
    <path class="cls-1" d="M327.19,52.81v43.59c0,1.09-.37,2.01-1.12,2.78-.75.77-1.69,1.15-2.82,1.15h-29.81v-14.12h29.33v-1.83h-22.82c-1.81,0-3.36-.65-4.65-1.94-1.29-1.29-1.94-2.86-1.94-4.72v-24.92h15.28v27.5h3.26v-27.5h15.28Z"/>
    <path class="cls-1" d="M355.03,52.81l7.26,9.78,7.27-9.78h10.93v47.53h-15.28v-25.67l-2.92,3.94-2.92-3.94v25.67h-15.28v-47.53h10.93Z"/>
    <path class="cls-1" d="M418.92,100.34h-15.28v-15.96h-3.53v15.96h-15.28v-40.95c0-1.81.65-3.36,1.94-4.65,1.29-1.29,2.86-1.94,4.72-1.94h20.78c1.85,0,3.43.65,4.72,1.94,1.29,1.29,1.93,2.84,1.93,4.65v40.95ZM400.12,66.93v13.38h3.53v-13.38h-3.53Z"/>
    <path class="cls-1" d="M456.95,52.81v43.59c0,1.09-.37,2.01-1.12,2.78-.75.77-1.69,1.15-2.82,1.15h-29.81v-14.12h29.33v-1.83h-22.82c-1.81,0-3.36-.65-4.65-1.94-1.29-1.29-1.94-2.86-1.94-4.72v-24.92h15.28v27.5h3.26v-27.5h15.28Z"/>
    <path class="cls-1" d="M484.79,52.81l7.26,9.78,7.27-9.78h10.93v47.53h-15.28v-25.67l-2.92,3.94-2.92-3.94v25.67h-15.28v-47.53h10.93Z"/>
    <path class="cls-1" d="M548.68,100.34h-15.28v-15.96h-3.53v15.96h-15.28v-40.95c0-1.81.65-3.36,1.94-4.65,1.29-1.29,2.86-1.94,4.72-1.94h20.78c1.85,0,3.43.65,4.72,1.94,1.29,1.29,1.93,2.84,1.93,4.65v40.95ZM536.33,46.22c4.3.14,6.47-1.56,6.52-5.09h3.87v2.24c-.05,4.25-2.15,6.56-6.32,6.93h-17.59c-4.17-.36-6.27-2.67-6.31-6.93v-2.24h3.87c.05,3.53,2.22,5.23,6.52,5.09h9.44ZM529.87,66.93v13.38h3.53v-13.38h-3.53ZM567.76,41.13l1.02,4.01-19.76,5.09-1.02-4.01,19.76-5.09Z"/>
    <path class="cls-1" d="M553.03,100.34v-47.53h10.93l7.74,8.62v-8.62h15.28v47.53h-15.28v-24.65l-3.4-3.67v28.32h-15.28Z"/>
    <path class="cls-1" d="M604.02,100.34v-47.53h27.43c1.85,0,3.43.65,4.72,1.94,1.29,1.29,1.93,2.84,1.93,4.65v34.36c0,1.81-.65,3.36-1.93,4.65-1.29,1.29-2.86,1.94-4.72,1.94h-27.43ZM619.3,86.22h3.53v-19.28h-3.53v19.28Z"/>
    <path class="cls-1" d="M642.32,100.34v-47.53h15.28v33.41h12.09v14.12h-27.36Z"/>
    <path class="cls-1" d="M706.83,57.09v19.62h-15.35v-9.78h-3.53v19.28h3.53v-5.43h15.28v12.97c0,1.81-.65,3.36-1.93,4.65-1.29,1.29-2.86,1.94-4.72,1.94h-20.78c-1.86,0-3.43-.65-4.72-1.94-1.29-1.29-1.93-2.84-1.93-4.65v-34.36c0-1.81.65-3.36,1.93-4.65,1.29-1.29,2.86-1.94,4.72-1.94h23.36c1.36,0,2.39.39,3.09,1.15.7.77,1.05,1.81,1.05,3.12Z"/>
  </g>
</svg>