<?xml version="1.0" encoding="UTF-8"?>
<svg id="Layer_1" data-name="Layer 1" xmlns="http://www.w3.org/2000/svg" viewBox="0 0 496 94">
  <defs>
    <style>
      .cls-1 {
        fill: #005baa;
        stroke-width: 0px;
      }

      .cls-2 {
        fill: #f9ff00;
        stroke: #f9ff00;
        stroke-linecap: round;
        stroke-linejoin: bevel;
        stroke-width: 10px;
      }
    </style>
  </defs>
  <g>
    <path class="cls-2" d="M88.66,40.53h28.79v12.71h-7.52v30.07h-13.75v-30.07h-7.52v-12.71Z"/>
    <path class="cls-2" d="M150.94,83.31h-13.75v-14.36h-3.18v14.36h-13.75v-36.86c0-1.63.58-3.03,1.74-4.19,1.16-1.16,2.58-1.74,4.25-1.74h18.7c1.67,0,3.09.58,4.25,1.74s1.74,2.56,1.74,4.19v36.86ZM127.9,85.94h15.22v2.02h-15.22v-2.02ZM134.01,53.24v12.04h3.18v-12.04h-3.18Z"/>
    <path class="cls-2" d="M179.24,76.95h-10.63v6.36h-13.75v-42.79h24.69c1.67,0,3.09.58,4.25,1.74,1.16,1.16,1.74,2.56,1.74,4.19v24.27c0,1.71-.62,3.18-1.86,4.4-1.24,1.22-2.72,1.83-4.43,1.83ZM171.78,53.24h-3.18v11.06h3.18v-11.06Z"/>
    <path class="cls-2" d="M217.26,83.31v-19.56h-3.18v19.56h-13.75v-42.79h13.75v19.56h3.18v-19.56h13.75v42.79h-13.75Z"/>
    <path class="cls-2" d="M240.79,83.31c-1.67,0-3.09-.58-4.25-1.74-1.16-1.16-1.74-2.56-1.74-4.19v-30.93c0-1.63.58-3.03,1.74-4.19,1.16-1.16,2.58-1.74,4.25-1.74h18.7c1.67,0,3.09.58,4.25,1.74,1.16,1.16,1.74,2.56,1.74,4.19v30.93c0,1.63-.58,3.03-1.74,4.19s-2.58,1.74-4.25,1.74h-18.7ZM248.55,53.24v17.36h3.18v-17.36h-3.18ZM265.91,53.12l2.75-47.74,2.08.12-2.81,47.74-2.02-.12Z"/>
    <path class="cls-2" d="M299.83,83.31h-13.75v-14.36h-3.18v14.36h-13.75v-36.86c0-1.63.58-3.03,1.74-4.19,1.16-1.16,2.58-1.74,4.25-1.74h18.7c1.67,0,3.09.58,4.25,1.74,1.16,1.16,1.74,2.56,1.74,4.19v36.86ZM282.9,53.24v12.04h3.18v-12.04h-3.18Z"/>
    <path class="cls-2" d="M315.05,83.31v-42.79h24.69c1.67,0,3.09.58,4.25,1.74,1.16,1.16,1.74,2.56,1.74,4.19v30.93c0,1.63-.58,3.03-1.74,4.19s-2.58,1.74-4.25,1.74h-24.69ZM328.8,70.6h3.18v-17.36h-3.18v17.36Z"/>
    <path class="cls-2" d="M349.52,83.31v-42.79h13.75v30.07h10.88v12.71h-24.63Z"/>
    <path class="cls-2" d="M407.59,44.38v17.66h-13.81v-8.8h-3.18v17.36h3.18v-4.89h13.75v11.67c0,1.63-.58,3.03-1.74,4.19s-2.58,1.74-4.25,1.74h-18.7c-1.67,0-3.09-.58-4.25-1.74s-1.74-2.56-1.74-4.19v-30.93c0-1.63.58-3.03,1.74-4.19,1.16-1.16,2.58-1.74,4.25-1.74h21.03c1.22,0,2.15.35,2.78,1.04.63.69.95,1.63.95,2.81Z"/>
  </g>
  <g>
    <path class="cls-1" d="M88.66,40.53h28.79v12.71h-7.52v30.07h-13.75v-30.07h-7.52v-12.71Z"/>
    <path class="cls-1" d="M150.94,83.31h-13.75v-14.36h-3.18v14.36h-13.75v-36.86c0-1.63.58-3.03,1.74-4.19,1.16-1.16,2.58-1.74,4.25-1.74h18.7c1.67,0,3.09.58,4.25,1.74s1.74,2.56,1.74,4.19v36.86ZM127.9,85.94h15.22v2.02h-15.22v-2.02ZM134.01,53.24v12.04h3.18v-12.04h-3.18Z"/>
    <path class="cls-1" d="M179.24,76.95h-10.63v6.36h-13.75v-42.79h24.69c1.67,0,3.09.58,4.25,1.74,1.16,1.16,1.74,2.56,1.74,4.19v24.27c0,1.71-.62,3.18-1.86,4.4-1.24,1.22-2.72,1.83-4.43,1.83ZM171.78,53.24h-3.18v11.06h3.18v-11.06Z"/>
    <path class="cls-1" d="M217.26,83.31v-19.56h-3.18v19.56h-13.75v-42.79h13.75v19.56h3.18v-19.56h13.75v42.79h-13.75Z"/>
    <path class="cls-1" d="M240.79,83.31c-1.67,0-3.09-.58-4.25-1.74-1.16-1.16-1.74-2.56-1.74-4.19v-30.93c0-1.63.58-3.03,1.74-4.19,1.16-1.16,2.58-1.74,4.25-1.74h18.7c1.67,0,3.09.58,4.25,1.74,1.16,1.16,1.74,2.56,1.74,4.19v30.93c0,1.63-.58,3.03-1.74,4.19s-2.58,1.74-4.25,1.74h-18.7ZM248.55,53.24v17.36h3.18v-17.36h-3.18ZM265.91,53.12l2.75-47.74,2.08.12-2.81,47.74-2.02-.12Z"/>
    <path class="cls-1" d="M299.83,83.31h-13.75v-14.36h-3.18v14.36h-13.75v-36.86c0-1.63.58-3.03,1.74-4.19,1.16-1.16,2.58-1.74,4.25-1.74h18.7c1.67,0,3.09.58,4.25,1.74,1.16,1.16,1.74,2.56,1.74,4.19v36.86ZM282.9,53.24v12.04h3.18v-12.04h-3.18Z"/>
    <path class="cls-1" d="M315.05,83.31v-42.79h24.69c1.67,0,3.09.58,4.25,1.74,1.16,1.16,1.74,2.56,1.74,4.19v30.93c0,1.63-.58,3.03-1.74,4.19s-2.58,1.74-4.25,1.74h-24.69ZM328.8,70.6h3.18v-17.36h-3.18v17.36Z"/>
    <path class="cls-1" d="M349.52,83.31v-42.79h13.75v30.07h10.88v12.71h-24.63Z"/>
    <path class="cls-1" d="M407.59,44.38v17.66h-13.81v-8.8h-3.18v17.36h3.18v-4.89h13.75v11.67c0,1.63-.58,3.03-1.74,4.19s-2.58,1.74-4.25,1.74h-18.7c-1.67,0-3.09-.58-4.25-1.74s-1.74-2.56-1.74-4.19v-30.93c0-1.63.58-3.03,1.74-4.19,1.16-1.16,2.58-1.74,4.25-1.74h21.03c1.22,0,2.15.35,2.78,1.04.63.69.95,1.63.95,2.81Z"/>
  </g>
</svg>